<svg width="200" height="60" fill="none" xmlns="http://www.w3.org/2000/svg"><rect x=".7" y="3.7" width="198.6" height="54.6" rx="27.3" stroke="#458FF6" stroke-width="1.4"/><path d="m78 24-6 13h-1l-6-13h2l5 10 4-10h2Zm1 4h2v9h-2v-9Zm3-4v2h-3v-2h3Zm10 9h-6v2h2l3-1 1 2-2 1h-2l-3-1-2-4 1-2 2-2h2l3 1 1 3v1Zm-4-4-2 1v1h4l-1-1-1-1Zm20-1-3 9h-2l-3-6-2 6h-2l-3-9h2l2 6 3-6h1l3 6 2-6h2Zm15 0v9h-2v-1l-1 1h-4l-2-2v-5l2-2h4l1 1v-1h2Zm-4 7h1l1-3-1-2-1-1-2 1-1 2 1 3h2Zm7-11h2v13h-2V24Zm4 0h2v13h-2V24Z" fill="#458FF6"/></svg>