<svg width="200" height="60" fill="none" xmlns="http://www.w3.org/2000/svg"><rect y="3" width="200" height="56" rx="28" fill="#458FF6"/><path d="m47 37-3-1-2-2-1-3 1-4 2-2 3-1 3 1 2 1-1 1-2-1h-2l-3 1-1 4 1 3 3 1h2l2-1 1 2-2 1h-3Zm10 0h-2l-2-2-1-3 1-2 2-2h4l2 2 1 2-1 3-2 2h-2Zm0-2h2v-5l-2-1-2 1v5h2Zm7 2v-7a18 18 0 0 0-1-2h3v2l1-2h2l2 1 1 2v6h-2v-5l-1-2-1-1-2 1v7h-2Zm14 0h-3l-1-1v-1a5 5 0 0 0 4 1l1-1v-1l-1-1h-2l-1-1-1-1 1-2 1-1h4l1 1v1h-2l-1-1-1 1-1 1 1 1h2l2 1 1 1-1 2-1 1h-2Zm9 0-3-1-1-3v-5h3v7h3v-7h3v9h-2v-2l-1 2h-2Zm7 0V24h2v13h-2Zm9 0-3-1-1-2v-4h-1v-2h1v-2l3-1v3h2v2h-2v5h1a3 3 0 0 0 1 0v2h-1Zm11 0-2-1-1-2v-4h-2v-2h2v-2l2-1v3h3v2h-3v4l1 1h1a3 3 0 0 0 1 0v2h-2Zm7 0h-2l-2-2v-5l2-2h5l1 2 1 2-1 3-1 2h-3Zm0-2h2l1-3-1-2-2-1-1 1-1 2 1 3h1Zm11 2h-3l-1-2v-5a4 4 0 0 1 4-2h2l1 2h-1v-6h3v13h-3v-2h1l-1 2h-2Zm0-2h2l1-3-1-2-2-1-2 1v5h2Zm11 2h-2l-2-2v-5a4 4 0 0 1 4-2h2l1 2v-2h2a380 380 0 0 0 0 2v7h-2v-2l-1 2h-2Zm0-2h2l1-3-1-2-2-1-1 1-1 2 1 3h1Zm7 6v-2h1l1-1 1-1v-1 1l-4-9h2l3 7 3-7h2l-4 10-1 1a4 4 0 0 1-2 2h-2Z" fill="#fff"/></svg>