<svg width="200" height="56" fill="none" xmlns="http://www.w3.org/2000/svg"><rect x=".7" y=".7" width="198.6" height="54.6" rx="27.3" stroke="#458FF6" stroke-width="1.4"/><path d="M44 21h5l5 2 2 5-2 4-5 2h-5V21Zm5 11c3 0 4-1 4-4s-1-5-4-5h-2v9h2Zm13 2h-2l-2-2-1-3 1-2 2-2h4l2 2 1 2-1 3-2 2h-2Zm0-2h2v-5l-2-1-2 1v5h2Zm21-7-4 9h-2l-2-6-2 6h-2l-4-9h3l2 6 2-6h2l2 6 3-6h2Zm7 0c2 0 3 1 3 3v6h-2v-5l-1-2-1-1-2 1v7h-3v-9h2v1l2-1h2Zm5-4h2v13h-2V21Zm9 13h-2l-2-2-1-3 1-2 2-2h4l2 2 1 2-1 3-2 2h-2Zm0-2h2v-5l-2-1-2 1v5h2Zm15-7v9h-2v-1l-1 1h-4l-1-2-1-3 1-2 1-2h4l1 1v-1h2Zm-4 7h1l1-3-1-2-1-1-2 1-1 2 1 3h2Zm15-11v13h-2v-1l-1 1h-2a4 4 0 0 1-3-2l-1-3 1-2a4 4 0 0 1 3-2h2l1 1v-5h2Zm-4 11h2v-5l-2-1-2 1-1 2 1 3h2ZM151 21v12l-3-3h-1v1l4 4h1l4-4v-1h-1l-2 3V21l-1-1-1 1Z" fill="#458FF6"/></svg>