<svg width="200" height="60" fill="none" xmlns="http://www.w3.org/2000/svg"><rect x=".7" y="3.7" width="198.6" height="54.6" rx="27.3" stroke="#458FF6" stroke-width="1.4"/><path d="M52 24h3v11h6v2h-9V24Zm18 9h-6l1 2h2l2-1 1 2-2 1h-1l-4-1-1-4v-2l2-2h2l3 1 1 3v1Zm-4-4-1 1-1 1h4v-1l-2-1Zm15-1v9h-2v-1l-2 1h-3l-2-2v-5l2-2h3l2 1v-1h2Zm-5 7h2l1-3-1-2-2-1-2 1v5h2Zm12-7h1v2h-3l-1 2v5h-2v-9h2v2l1-2h2Zm8 0c2 0 3 1 3 3v6h-2v-5l-1-2-1-1-2 1v7h-3v-9h2v1l2-1h2Zm21 0 2 1 1 2v6h-2v-6l-1-1-1-1-1 1-1 2v5h-2v-6l-1-1-1-1-1 1-1 2v5h-2v-9h2v1l1-1h2l3 1 1-1h2Zm9 9h-2l-2-2v-5l2-2h5l1 2 1 2-1 3-1 2h-3Zm0-2h2l1-3-1-2-2-1-1 1-1 2 1 3h1Zm12-7h1v2h-3l-1 2v5h-2v-9h2v2l1-2h2Zm10 5h-7l1 2h2l3-1 1 2-2 1h-2l-3-1-2-4 1-2 1-2h3l3 1 1 3v1Zm-4-4-2 1v1h4l-1-1-1-1Z" fill="#458FF6"/></svg>