<svg width="80" height="72" fill="none" xmlns="http://www.w3.org/2000/svg"><g clip-path="url(#a)"><path d="M66 14H13v57h53V14Z" fill="url(#b)"/><path d="M13 14v57c-4 0-7-1-10-3-2-2-3-4-3-7V24c0-4 2-7 6-9l7-1Z" fill="url(#c)"/><path d="M57 14h5v57H18V14h5V7l1-3 3-1h26l3 1 1 3v7Zm-28 0h8a7399 7399 0 0 1 14 0V8H29v6Z" fill="#fff"/><mask id="d" style="mask-type:alpha" maskUnits="userSpaceOnUse" x="17" y="2" width="46" height="70"><path d="M57 14h5v57H18V14h5V7l1-3 3-1h26l3 1 1 3v7Zm-28 0h8a7399 7399 0 0 1 14 0V8H29v6Z" fill="#F7F9FC"/></mask><g mask="url(#d)"><path d="M58 0H21v14h37V0Z" fill="url(#e)"/></g><path d="M80 24c0-4-2-7-6-9l-7-1h-1v57h5c5-1 9-5 9-10V24Z" fill="url(#f)"/><path d="M44 47v7l-1 1a701 701 0 0 1-7-1v-7h-7l-2-1v-6l2-2h7v-7l1-1h6l1 1v7h1a1707 1707 0 0 1 8 2v6l-2 1h-7Z" fill="url(#g)"/></g><defs><linearGradient id="b" x1="13.3" y1="42.6" x2="66.5" y2="42.6" gradientUnits="userSpaceOnUse"><stop stop-color="#B0F4FF"/><stop offset="1" stop-color="#69DCFC"/></linearGradient><linearGradient id="c" x1="0" y1="42.6" x2="13.3" y2="42.6" gradientUnits="userSpaceOnUse"><stop stop-color="#6CBCFC"/><stop offset="1" stop-color="#458DFC"/></linearGradient><linearGradient id="e" x1="21" y1="7" x2="58.1" y2="7" gradientUnits="userSpaceOnUse"><stop stop-color="#6CBCFC"/><stop offset="1" stop-color="#458DFC"/></linearGradient><linearGradient id="f" x1="66.5" y1="42.6" x2="80" y2="42.6" gradientUnits="userSpaceOnUse"><stop stop-color="#6CBCFC"/><stop offset="1" stop-color="#458DFC"/></linearGradient><linearGradient id="g" x1="27.4" y1="42.6" x2="52.6" y2="42.6" gradientUnits="userSpaceOnUse"><stop stop-color="#6CBCFC"/><stop offset="1" stop-color="#458DFC"/></linearGradient><clipPath id="a"><path fill="#fff" d="M0 0h80v71H0z"/></clipPath></defs></svg>